{"title":"Bang Bang 2014 Hindi Esub NRDVDRip  GOPI SAHI PDR","uid":11227774,"size":734007117,"categoryP":"video","categoryS":"movies","magnet":"?xt=urn:btih:e2d6832c143dfbea6d8a9f5d6d8dd05f1eee4a88&amp;dn=Bang+Bang+2014+Hindi+Esub+NRDVDRip++GOPI+SAHI+PDR&amp;tr=udp%3A%2F%2Ftracker.openbittorrent.com%3A80&amp;tr=udp%3A%2F%2Fopen.demonii.com%3A1337&amp;tr=udp%3A%2F%2Ftracker.coppersurfer.tk%3A6969&amp;tr=udp%3A%2F%2Fexodus.desync.com%3A6969","seeders":3,"leechers":0,"uploader":"jatt13","files":1,"time":1413476493,"description":"General\nUnique ID                      : 186708440533331308420354137412753133293 (0x8C76BCD6959D8868866330DC6C638EED)\nComplete name                  : D:FILMBang Bang 2014 Hindi Esub NRDVDRip  GOPI SAHI PDR.mkv\nFormat                         : Matroska\nFormat version                 : Version 4 / Version 2\nFile size                      : 700 MiB\nDuration                       : 2h 32mn\nOverall bit rate               : 641 Kbps\nMovie name                     : GOPI SAHI\nEncoded date                   : UTC 2014-10-17 03:37:40\nWriting application            : mkvmerge v6.5.0 ('Isn't she lovely') built on Oct 20 2013 12:50:05\nWriting library                : libebml v1.3.0 + libmatroska v1.4.1\n\nVideo\nID                             : 1\nFormat                         : AVC\nFormat/Info                    : Advanced Video Codec\nFormat profile                 : &lt;a class=&quot;__cf_email__&quot; href=&quot;/cdn-cgi/l/email-protection&quot; data-cfemail=&quot;b0f8d9d7d8f0fc829e81&quot;&gt;[email&amp;#160;protected]&lt;/a&gt;&lt;script cf-hash='f9e31' type=&quot;text/javascript&quot;&gt;\n/* &lt;![CDATA[ */!function(){try{var t=&quot;currentScript&quot;in document?document.currentScript:function(){for(var t=document.getElementsByTagName(&quot;script&quot;),e=t.length;e--;)if(t[e].getAttribute(&quot;cf-hash&quot;))return t[e]}();if(t&amp;&amp;t.previousSibling){var e,r,n,i,c=t.previousSibling,a=c.getAttribute(&quot;data-cfemail&quot;);if(a){for(e=&quot;&quot;,r=parseInt(a.substr(0,2),16),n=2;a.length-n;n+=2)i=parseInt(a.substr(n,2),16)^r,e+=String.fromCharCode(i);e=document.createTextNode(e),c.parentNode.replaceChild(e,c)}}}catch(u){}}();/* ]]&gt; */&lt;/script&gt;\nFormat settings, CABAC         : Yes\nFormat settings, ReFrames      : 4 frames\nCodec ID                       : V_MPEG4/ISO/AVC\nDuration                       : 2h 32mn\nBit rate                       : 559 Kbps\nWidth                          : 640 pixels\nHeight                         : 256 pixels\nDisplay aspect ratio           : 2.500\nFrame rate mode                : Constant\nFrame rate                     : 23.976 fps\nColor space                    : YUV\nChroma subsampling             : 4:2:0\nBit depth                      : 8 bits\nScan type                      : Progressive\nBits/(Pixel*Frame)             : 0.142\nStream size                    : 599 MiB (86%)\nTitle                          : GOPI SAHI\nWriting library                : x264 core 142 r2479 dd79a61aq=1:1.00\nLanguage                       : Hindi\nDefault                        : Yes\nForced                         : No\n\nAudio\nID                             : 2\nFormat                         : MPEG Audio\nFormat version                 : Version 1\nFormat profile                 : Layer 3\nMode                           : Joint stereo\nMode extension                 : MS Stereo\nCodec ID                       : A_MPEG/L3\nCodec ID/Hint                  : MP3\nDuration                       : 2h 32mn\nBit rate mode                  : Constant\nBit rate                       : 80.0 Kbps\nChannel(s)                     : 2 channels\nSampling rate                  : 32.0 KHz\nCompression mode               : Lossy\nStream size                    : 87.4 MiB (12%)\nTitle                          : GOPI SAHI\nWriting library                : LAME3.99r\nEncoding settings              : -m j -V 4 -q 2 -lowpass 13.5 -b 80\nLanguage                       : Hindi\nDefault                        : Yes\nForced                         : No\n\nText\nID                             : 3\nFormat                         : UTF-8\nCodec ID                       : S_TEXT/UTF8\nCodec ID/Info                  : UTF-8 Plain Text\nTitle                          : GOPI SAHI\nLanguage                       : English\nDefault                        : Yes\nForced                         : No\n[IMG]http://imgchicken.com/images/86291769140460288204.jpg[/IMG]\n[IMG]http://imgchicken.com/images/25988101072521954727.jpg[/IMG]\n[IMG]http://imgchicken.com/images/01228037725750052567.jpg[/IMG]\n[IMG]http://imgchicken.com/images/96690534665403236273.jpg[/IMG]\n[IMG]http://imgchicken.com/images/68838385043652709424.jpg[/IMG]\n[IMG]http://imgchicken.com/images/20505516771049741030.jpg[/IMG]","torrent":{"xt":"urn:btih:e2d6832c143dfbea6d8a9f5d6d8dd05f1eee4a88","amp;dn":"Bang+Bang+2014+Hindi+Esub+NRDVDRip++GOPI+SAHI+PDR","amp;tr":["udp%3A%2F%2Ftracker.openbittorrent.com%3A80","udp%3A%2F%2Fopen.demonii.com%3A1337","udp%3A%2F%2Ftracker.coppersurfer.tk%3A6969","udp%3A%2F%2Fexodus.desync.com%3A6969"],"infoHash":"e2d6832c143dfbea6d8a9f5d6d8dd05f1eee4a88","infoHashBuffer":{"type":"Buffer","data":[226,214,131,44,20,61,251,234,109,138,159,93,109,141,208,95,30,238,74,136]},"announce":[],"urlList":[]}}